<svg width="24" height="24" viewBox="0 0 20 21" fill="none" xmlns="http://www.w3.org/2000/svg">
<path d="M15.2929 0.292893C15 0.585786 15 1.05719 15 2V15C15 15.9428 15 16.4142 15.2929 16.7071C15.5858 17 16.0572 17 17 17C17.9428 17 18.4142 17 18.7071 16.7071C19 16.4142 19 15.9428 19 15V2C19 1.05719 19 0.585786 18.7071 0.292893C18.4142 0 17.9428 0 17 0C16.0572 0 15.5858 0 15.2929 0.292893Z" fill="white"/>
<path d="M8 5C8 4.05719 8 3.58579 8.29289 3.29289C8.58579 3 9.05719 3 10 3C10.9428 3 11.4142 3 11.7071 3.29289C12 3.58579 12 4.05719 12 5V15C12 15.9428 12 16.4142 11.7071 16.7071C11.4142 17 10.9428 17 10 17C9.05719 17 8.58579 17 8.29289 16.7071C8 16.4142 8 15.9428 8 15V5Z" fill="white"/>
<path d="M1.29289 7.29289C1 7.58579 1 8.05719 1 9V15C1 15.9428 1 16.4142 1.29289 16.7071C1.58579 17 2.05719 17 3 17C3.94281 17 4.41421 17 4.70711 16.7071C5 16.4142 5 15.9428 5 15V9C5 8.05719 5 7.58579 4.70711 7.29289C4.41421 7 3.94281 7 3 7C2.05719 7 1.58579 7 1.29289 7.29289Z" fill="white"/>
<path d="M1 19.25C0.585786 19.25 0.25 19.5858 0.25 20C0.25 20.4142 0.585786 20.75 1 20.75H19C19.4142 20.75 19.75 20.4142 19.75 20C19.75 19.5858 19.4142 19.25 19 19.25H1Z" fill="white"/>
</svg>
