<svg width="40" height="40" version="1.1" xmlns="http://www.w3.org/2000/svg" xmlns:xlink="http://www.w3.org/1999/xlink" x="0px" y="0px" viewBox="0 0 300 300" xml:space="preserve"><path fill="#F5F5F5" d="M116.8,11.1c4.3,0,8.6,0,13,0c1.2,0.6,2.5,0.1,3.7,0.3c12.8-0.2,24.9,3.1,36.8,7.5 	c20.3,7.4,38.3,18.6,54.4,32.9c24.9,22.1,43.3,48.7,53.9,80.4c5.6,16.8,8.1,34.1,7,51.8c-1.5,23.6-9.7,44.5-26.8,61.3
					c-3.6,3.5-7.1,7.1-11.5,9.7c-1,0.1-1.9,0.5-2.7,1.1c-10,6.2-20.9,9.9-32.4,11.9c-5.6,0.9-11.3,1.4-16.9,1.3
					c-10.4,0-20.8-1.4-30.9-4.1c-25.3-6.6-47.4-19.1-67.2-36c-20.8-17.8-37.1-39-48.6-63.9c-7.9-17.1-12.8-35.1-14.1-54
					C33.1,92.2,36.2,74,44.5,56.8c2.7-5.7,6.3-10.9,10.4-15.7c0.5-0.6,0.8-1.2,1.1-1.8c4-4.7,8.7-8.5,13.7-12.1
					c10.3-7.5,21.8-12.4,34.2-15c3.3-0.7,6.8-0.7,10.1-0.9C114.9,11.3,115.9,11.6,116.8,11.1z"/><path fill="#F7F0F2" class="st1" d="M133.6,11.1c0,0.2,0,0.4,0,0.5c-1.3-0.2-2.6,0.5-3.8-0.5C131.1,11.1,132.3,11.1,133.6,11.1z"/><path fill="#FFFFFF" class="st2" d="M190.7,232.9c-14.6,0.3-27.4-3.2-39.8-8.6c-13.3-5.9-24.9-14-35.6-23.8c-13.9-12.8-24.4-28-32-45.1
					c-7.2-16.2-10.5-33.2-9-50.9c1.5-17.7,7.9-33.3,21.3-45.4c9.9-9,21.7-14.1,35-15.7c18.3-2.2,35.5,1.7,52,9.4
					c15.3,7.2,28.5,17.3,39.9,29.7c12.5,13.5,22,29,28.1,46.4c2.9,8.2,4.7,16.7,5.6,25.4c1.5,14.6-0.2,28.7-6.2,42.1
					c-5.5,12.2-14.1,21.7-25.9,28.3C213.3,230.6,201.9,233.3,190.7,232.9z"/><path fill="#3c3c3c" d="M246.9,254.5c-6.2,5.4-11.9,11.4-18.7,16.3c-10.9,7.9-23,12.8-36.2,15.1c-7.2,1.3-14.4,1.9-21.7,1.6
					c-16.4-0.6-32.1-4.3-47.2-10.6c-17.4-7.2-33.1-17.2-47.3-29.5c-18.3-15.9-33.2-34.4-44.4-55.9C23.2,175.6,17.5,159,15,141.4
					c-3-20.9-1.5-41.4,7.1-60.9c5.4-12.3,13.6-22.6,23.8-31.2c3.6-3.1,7.1-6.4,10.6-9.6c0.4,1.2-0.8,1.8-1.3,2.4
					C45.9,53.1,40.5,66,37.3,79.9c-1.1,5-1.9,10-2,15.1c-0.1,2.6-0.6,5.1-0.5,7.8c0.2,13.2,2.1,26.2,5.8,38.9c5,17.2,12.6,33.2,22.6,48
					c5.9,8.7,12.4,16.8,19.6,24.5c16.2,17.4,35,31.2,56.6,41.2c12.3,5.7,25.1,9.5,38.5,11.6c5.6,0.9,11.3,1.4,16.8,1.3
					c17.7-0.2,34.7-3.6,49.9-13.4C245.3,254.5,245.9,253.6,246.9,254.5z"/><path fill="#4c4c4c" d="M202.7,123c0.8,11.3-6.5,19.4-17,23c-4.6,1.6-9.1,3.4-13.6,5c-1.9,0.7-1.9,1.4-0.8,2.9c1.2,1.5,2.2,3.1,3.1,4.7
					c0.9,1.7,1.9,2,3.7,1.3c11-4.1,22.1-8,33.1-12.3c9.6-3.7,20.1,2.5,21.1,12.8c0.3,2.7-1.4,5.3-4.4,6.4c-9.3,3.5-18.7,7-28,10.4
					c-2.8,1-5.5,2.2-8.3,3.1c-1.5,0.5-1.6,1-0.8,2.2c4.1,6,8.2,12,12.3,18c1.8,2.7,3.7,5.3,3.5,8.8c-0.2,3.4-2.7,5.9-6.2,6.2
					c-5.7,0.5-10-2-13.1-6.4c-4.7-6.5-9.1-13.1-13.5-19.8c-1-1.6-2-2-3.7-1.2c-1.8,0.8-3.7,1.3-5.5,2.1c-3.6,1.7-7.1,1.1-10.3-1
					c-4.5-3-8.3-6.7-8.6-12.6c-0.2-3.2,1.3-5.3,4.3-6.4c2.2-0.8,4.4-1.6,6.6-2.4c1.4-0.5,1.9-1.2,0.8-2.6c-1.4-1.8-2.7-3.6-3.8-5.5
					c-0.9-1.5-1.8-1.4-3.1-0.9c-1.3,0.5-2.7,1.1-4,1.5c-7.9,2.7-13.5,0.7-18.2-6.3c-1.2-1.8-1.9-3.7-2.3-5.7c-0.7-3.1,1.1-6.2,4.1-7.4
					c1.3-0.5,2.5-0.9,3.8-1.4c4.8-1.9,4.8-2,1.9-6.3c-8.8-12.9-17.6-25.8-26.3-38.7c-0.8-1.2-1.5-2.4-2.1-3.8c-2.1-5.2-0.2-8.9,5-10.8
					c8.4-3,16.8-6.4,25.3-9.2c11.3-3.8,22.1-1.7,32.3,3.8c12.3,6.6,21.4,16.4,28,28.7C199.8,107.8,203.3,115.7,202.7,123z"/><path fill="#FFFFFF" d="M180.5,114.7c-0.3,4.3-1.8,7.7-5.7,9.6c-5.6,2.8-11.8,4.4-17.6,6.8c-1.1,0.5-1.6-0.1-2.2-0.9
					c-7.1-10.4-14.1-20.8-21.2-31.1c-0.7-1-0.4-1.5,0.5-1.8c6.7-2.2,13.1-5.8,20.1-6.7c5.6-0.8,10.6,1.8,14.8,5.3
					c5.6,4.6,9.8,10.2,10.9,17.7C180.3,114,180.4,114.4,180.5,114.7z"/></svg>